<svg width="148" height="52" fill="none" xmlns="http://www.w3.org/2000/svg"><circle cx="30" cy="13" r="13" fill="#000"/><circle cx="13" cy="39" r="13" fill="#000"/><circle cx="46" cy="39" r="13" fill="#000"/><path d="m81.976 15.376 2.232-6.288h.048l2.16 6.288h-4.44Zm.36-10.512L75.856 22h3.792l1.344-3.816H87.4L88.696 22h3.912L86.2 4.864h-3.864Zm23.174 5.76h3.648c-.112-.992-.384-1.872-.816-2.64a6.206 6.206 0 0 0-1.656-1.92 6.942 6.942 0 0 0-2.256-1.2 8.521 8.521 0 0 0-2.664-.408c-1.312 0-2.496.232-3.552.696a7.599 7.599 0 0 0-2.64 1.92c-.72.816-1.272 1.776-1.656 2.88-.384 1.088-.576 2.272-.576 3.552 0 1.248.192 2.416.576 3.504a8.363 8.363 0 0 0 1.656 2.808c.72.8 1.6 1.432 2.64 1.896 1.056.448 2.24.672 3.552.672 1.056 0 2.024-.16 2.904-.48a6.733 6.733 0 0 0 2.304-1.392 6.955 6.955 0 0 0 1.584-2.208c.4-.864.648-1.832.744-2.904h-3.648c-.144 1.152-.544 2.08-1.2 2.784-.64.704-1.536 1.056-2.688 1.056-.848 0-1.568-.16-2.16-.48a4.231 4.231 0 0 1-1.44-1.32 5.89 5.89 0 0 1-.816-1.824 9.293 9.293 0 0 1-.24-2.112c0-.752.08-1.48.24-2.184a5.835 5.835 0 0 1 .816-1.872c.368-.56.848-1 1.44-1.32.592-.336 1.312-.504 2.16-.504.464 0 .904.08 1.32.24a3.644 3.644 0 0 1 1.992 1.584c.224.352.368.744.432 1.176Zm6.365-5.76V22h3.528V9.976h.048l4.2 12.024h2.904l4.2-12.144h.048V22h3.528V4.864h-5.304l-3.792 11.784h-.048l-4.008-11.784h-5.304Zm21.773 0V22h13.008v-3.168h-9.24v-4.2h8.304v-2.928h-8.304V8.032h9.048V4.864h-12.816ZM78.419 30.864V48H89.77v-1.92h-9.072V30.864h-2.28Zm23.992 17.088c-.352.208-.84.312-1.464.312-.528 0-.952-.144-1.272-.432-.304-.304-.456-.792-.456-1.464-.56.672-1.216 1.16-1.968 1.464a6.53 6.53 0 0 1-2.4.432c-.56 0-1.096-.064-1.608-.192a3.717 3.717 0 0 1-1.296-.6 3.016 3.016 0 0 1-.888-1.056c-.208-.448-.312-.984-.312-1.608 0-.704.12-1.28.36-1.728.24-.448.552-.808.936-1.08.4-.288.848-.504 1.344-.648a16.972 16.972 0 0 1 1.56-.36c.56-.112 1.088-.192 1.584-.24.512-.064.96-.144 1.344-.24.384-.112.688-.264.912-.456.224-.208.336-.504.336-.888 0-.448-.088-.808-.264-1.08a1.62 1.62 0 0 0-.648-.624 2.523 2.523 0 0 0-.888-.288 6.463 6.463 0 0 0-.96-.072c-.864 0-1.584.168-2.16.504-.576.32-.888.936-.936 1.848h-2.04c.032-.768.192-1.416.48-1.944a3.534 3.534 0 0 1 1.152-1.272 4.707 4.707 0 0 1 1.632-.72 8.84 8.84 0 0 1 1.992-.216c.56 0 1.112.04 1.656.12a4.22 4.22 0 0 1 1.512.504c.448.24.808.584 1.08 1.032.272.448.408 1.032.408 1.752v6.384c0 .48.024.832.072 1.056.064.224.256.336.576.336.176 0 .384-.04.624-.12v1.584Zm-3.312-6.36c-.256.192-.592.336-1.008.432-.416.08-.856.152-1.32.216a21.59 21.59 0 0 0-1.368.192c-.464.064-.88.176-1.248.336a2.32 2.32 0 0 0-.912.696c-.224.288-.336.688-.336 1.2 0 .336.064.624.192.864.144.224.32.408.528.552.224.144.48.248.768.312.288.064.592.096.912.096.672 0 1.248-.088 1.728-.264.48-.192.872-.424 1.176-.696.304-.288.528-.592.672-.912a2.39 2.39 0 0 0 .216-.936v-2.088Zm5.282-10.728V48h2.04v-1.656h.048c.224.368.496.68.816.936.336.24.688.432 1.056.576.368.144.736.248 1.104.312.384.064.728.096 1.032.096.944 0 1.768-.168 2.472-.504a4.9 4.9 0 0 0 1.776-1.368 5.74 5.74 0 0 0 1.056-2.064c.24-.784.36-1.616.36-2.496 0-.88-.12-1.712-.36-2.496a6.05 6.05 0 0 0-1.08-2.064 4.906 4.906 0 0 0-1.776-1.44c-.704-.352-1.536-.528-2.496-.528-.864 0-1.656.16-2.376.48-.72.304-1.248.8-1.584 1.488h-.048v-6.408h-2.04Zm9.6 10.824c0 .608-.064 1.2-.192 1.776a4.698 4.698 0 0 1-.624 1.536 3.249 3.249 0 0 1-1.152 1.08c-.464.272-1.048.408-1.752.408s-1.304-.128-1.8-.384a3.733 3.733 0 0 1-1.224-1.056 4.511 4.511 0 0 1-.672-1.488 7.295 7.295 0 0 1-.216-1.776c0-.576.064-1.144.192-1.704.144-.56.368-1.056.672-1.488a3.464 3.464 0 0 1 1.176-1.08c.48-.272 1.064-.408 1.752-.408.656 0 1.224.128 1.704.384.496.256.896.6 1.2 1.032.32.432.552.928.696 1.488.16.544.24 1.104.24 1.68Z" fill="#000"/></svg>