<svg width="38" height="30" fill="none" xmlns="http://www.w3.org/2000/svg"><g clip-path="url('#clip0')"><path d="M34.523 3.488v5.805l-5.028 2.951-2.065-1.161-1.7 2.986-2.678 4.66-.483.806v6.977h-7.138v-6.977l-.48-.806-2.677-4.66-1.704-2.986-2.062 1.161-5.031-2.951V3.488h13.212l.623.35 1.7.959 1.694-.96.622-.349H34.54h-.017ZM38.017 0h-17.6l-1.415.799L17.587 0H0v11.295l8.47 4.971.803-.453 2.68 4.66V30h14.093v-9.527l2.68-4.66.804.453 8.47-4.97V0h.017Z" fill="#fff"/></g><defs><clipPath id="clip0"><path fill="#fff" d="M0 0h38v30H0z"/></clipPath></defs></svg>